# xmcd CD database file
#
# Track frame offsets:
#	150
#	11450
#	22740
#	34525
#	47630
#	56122
#	65422
#	73412
#	81152
#	91387
#	102710
#	109207
#	121590
#	128792
#	140090
#	148952
#
# Disc length: 2138 seconds
#
# Revision: 1
# Processed by: cddbd v1.4PL0 Copyright (c) Steve Scherf et al.
# Submitted via: CDex 1.40Beta5
#
DISCID=e6085810
DTITLE=Jim Reeves - Teardrops of Regret
DYEAR=1998
DGENRE=Country
TTITLE0=My Heart is a Welcome Mat
TTITLE1=Teardrops of Regret
TTITLE2=I've Never Been so Blue
TTITLE3=Chicken Hearted
TTITLE4=Everywhere You Go
TTITLE5=Wind Up Doll
TTITLE6=Roly Poly
TTITLE7=The Oklahoma Hills
TTITLE8=Dear Hearts and Gentle People
TTITLE9=If Heartache is the Fashion
TTITLE10=Have I Told You Lately That I Love You?
TTITLE11=Your Old Love Letters
TTITLE12=I'm Beginning to Forget You
TTITLE13=Just Call Me Lonesome
TTITLE14=If You Were Only Mine
TTITLE15=I love You More
EXTD=YEAR: 1998 ID3G:   2
EXTT0=
EXTT1=
EXTT2=
EXTT3=
EXTT4=
EXTT5=
EXTT6=
EXTT7=
EXTT8=
EXTT9=
EXTT10=
EXTT11=
EXTT12=
EXTT13=
EXTT14=
EXTT15=
PLAYORDER=
